<svg width="512" height="512" viewBox="0 0 512 512" fill="none" xmlns="http://www.w3.org/2000/svg">
<rect width="512" height="512" rx="100" fill="#ED2E2F"/>
<path d="M123 437.636V74H266.466C293.928 74 317.366 78.9124 336.778 88.7372C356.31 98.4437 371.165 112.234 381.345 130.108C391.643 147.864 396.793 168.756 396.793 192.786C396.793 216.933 391.584 237.707 381.168 255.108C370.751 272.39 355.659 285.648 335.891 294.881C316.241 304.114 292.448 308.73 264.513 308.73H168.455V246.94H252.084C266.762 246.94 278.954 244.928 288.661 240.903C298.367 236.879 305.588 230.842 310.322 222.793C315.176 214.743 317.602 204.741 317.602 192.786C317.602 180.712 315.176 170.532 310.322 162.246C305.588 153.96 298.308 147.686 288.483 143.425C278.777 139.045 266.525 136.855 251.729 136.855H199.882V437.636H123ZM319.378 272.153L409.754 437.636H324.882L236.459 272.153H319.378Z" fill="white"/>
</svg>
